HIERARCHY
ROOT RootJoint
{
    OFFSET   0.000000   0.000000   0.000000
    CHANNELS 6 Xposition Yposition Zposition Xrotation Yrotation Zrotation
    JOINT pelvis_lowerback
    {
        OFFSET   0.000000   0.093605   0.000000
        CHANNELS 3 Xrotation Yrotation Zrotation
        JOINT lowerback_torso
        {
            OFFSET   0.000000   0.100000   0.000000
            CHANNELS 3 Xrotation Yrotation Zrotation
            JOINT torso_head
            {
                OFFSET   0.000000   0.282350   0.000000
                CHANNELS 3 Xrotation Yrotation Zrotation
                End Site
                {
                    OFFSET   0.000000   0.192650   0.000000
                }
            }
            JOINT rTorso_Clavicle
            {
                OFFSET  -0.001000   0.157500   0.000000
                CHANNELS 3 Xrotation Yrotation Zrotation
                JOINT rShoulder
                {
                    OFFSET  -0.117647   0.000000   0.000000
                    CHANNELS 3 Xrotation Yrotation Zrotation
                    JOINT rElbow
                    {
                        OFFSET  -0.245000   0.000000   0.000000
                        CHANNELS 3 Xrotation Yrotation Zrotation
                        JOINT rWrist
                        {
                            OFFSET  -0.240000   0.000000   0.000000
                            CHANNELS 3 Xrotation Yrotation Zrotation
                            End Site
                            {
                                OFFSET  -0.116353  -0.002500   0.000000
                            }
                        }
                    }
                }
            }
            JOINT lTorso_Clavicle
            {
                OFFSET   0.001000   0.157500   0.000000
                CHANNELS 3 Xrotation Yrotation Zrotation
                JOINT lShoulder
                {
                    OFFSET   0.117647   0.000000   0.000000
                    CHANNELS 3 Xrotation Yrotation Zrotation
                    JOINT lElbow
                    {
                        OFFSET   0.245000   0.000000   0.000000
                        CHANNELS 3 Xrotation Yrotation Zrotation
                        JOINT lWrist
                        {
                            OFFSET   0.240000   0.000000   0.000000
                            CHANNELS 3 Xrotation Yrotation Zrotation
                            End Site
                            {
                                OFFSET   0.116353  -0.002500   0.000000
                            }
                        }
                    }
                }
            }
        }
    }
    JOINT rHip
    {
        OFFSET  -0.100000  -0.051395   0.000000
        CHANNELS 3 Xrotation Yrotation Zrotation
        JOINT rKnee
        {
            OFFSET   0.000000  -0.410000   0.000000
            CHANNELS 3 Xrotation Yrotation Zrotation
            JOINT rAnkle
            {
                OFFSET   0.000000  -0.390000   0.000000
                CHANNELS 3 Xrotation Yrotation Zrotation
                JOINT rToeJoint
                {
                    OFFSET   0.000000  -0.050000   0.130000
                    CHANNELS 3 Xrotation Yrotation Zrotation
                    End Site
                    {
                        OFFSET  -0.010000   0.002000   0.060000
                    }
                }
            }
        }
    }
    JOINT lHip
    {
        OFFSET   0.100000  -0.051395   0.000000
        CHANNELS 3 Xrotation Yrotation Zrotation
        JOINT lKnee
        {
            OFFSET   0.000000  -0.410000   0.000000
            CHANNELS 3 Xrotation Yrotation Zrotation
            JOINT lAnkle
            {
                OFFSET   0.000000  -0.390000   0.000000
                CHANNELS 3 Xrotation Yrotation Zrotation
                JOINT lToeJoint
                {
                    OFFSET   0.000000  -0.050000   0.130000
                    CHANNELS 3 Xrotation Yrotation Zrotation
                    End Site
                    {
                        OFFSET   0.010000   0.002000   0.060000
                    }
                }
            }
        }
    }
}
MOTION
Frames: 8
Frame Time:   0.008333
 -2.376719   0.925631   3.975860   0.000000   0.000000   0.000000   0.000000   0.000000   0.000000   0.000000   0.000000   0.000000   0.000000   0.000000   0.000000   0.000000   0.000000   0.000000   0.000000   0.000000   0.000000   0.000000   0.000000   0.000000   0.000000   0.000000   0.000000   0.000000   0.000000   0.000000   0.000000   0.000000   0.000000   0.000000   0.000000   0.000000   0.000000   0.000000   0.000000   0.000000   0.000000   0.000000   0.000000   0.000000   0.000000   0.000000   0.000000   0.000000   0.000000   0.000000   0.000000   0.000000   0.000000   0.000000   0.000000   0.000000   0.000000   0.000000   0.000000   0.000000   0.000000   0.000000   0.000000
 -2.377013   0.925092   3.975342  -0.373172  -0.478154   0.220166   0.641696   0.108692  -0.362210   0.042227  -0.103485  -0.163009   0.164259  -0.037846   0.159273  -0.027428  -0.505968  -0.623273   0.427658   0.182641   2.480553   0.050403   3.645212  -0.023869  -0.178837  -1.163937  -1.539858  -0.074002   1.085685   0.866324  -0.755022   0.821967  -1.330888   0.024560  -3.769912  -0.016665  -0.184827   0.541416   1.071672  -0.340058   0.397995  -0.563099   2.162416   0.006484  -0.001700  -2.078070   0.082859   0.026827   0.009812   0.000027   0.000000  -0.462610  -0.099819   0.114083   2.798439  -0.008513  -0.013894  -1.747914   0.298740   0.206306  -0.256674   0.001192   0.000639
 -2.377389   0.924217   3.975116  -0.871193  -1.209769   0.424638   1.270436   0.299119  -0.764494   0.209380  -0.079549  -0.325530   0.410899  -0.090477   0.264870  -0.052059  -0.958208  -0.825012   0.811247   0.461073   5.131549   0.113701   7.412875  -0.041800  -0.320809  -1.308168  -2.516144  -0.161059   2.284930   1.542232  -1.447269   1.679941  -2.698848   0.051213  -7.602138  -0.029931  -0.370311   0.280992   1.889088  -0.540924   0.773235  -1.398068   4.448101   0.017362  -0.009643  -4.014314   0.155309   0.057363  -0.033952  -0.000212   0.000110  -0.792842  -0.195370   0.506546   5.794981  -0.024690  -0.030953  -3.363314   0.577974   0.411906  -0.502816   0.002692   0.001692
 -2.377950   0.923891   3.974983  -1.435863  -2.197993   0.485285   1.898216   0.600856  -1.095580   0.404148   0.072368  -0.421388   0.658750  -0.140848   0.344592  -0.072924  -1.325793  -0.685622   1.150613   0.780342   7.831821   0.180701  11.202380  -0.053366  -0.449462  -1.171290  -3.040682  -0.251971   3.483059   1.980339  -2.071406   2.552001  -4.093035   0.078458 -11.419683  -0.040664  -0.546334  -0.041572   2.481412  -0.891272   1.002927  -1.991532   6.416526   0.021579  -0.022529  -5.760251   0.129745   0.247973  -0.003580  -0.000074  -0.000125  -0.979576  -0.277819   1.242936   8.677472  -0.044523  -0.047384  -4.862072   0.838118   0.615536  -0.688234   0.003833   0.002632
 -2.378206   0.923382   3.975060  -2.031155  -3.115010   0.614235   2.480369   0.872932  -1.457682   0.598237   0.231845  -0.520086   0.897123  -0.190478   0.405998  -0.083491  -1.660782  -0.381203   1.454739   1.099916  10.492283   0.241586  14.995477  -0.058790  -0.576789  -0.974677  -3.189119  -0.340107   4.623522   2.289439  -2.627796   3.399917  -5.472188   0.100078 -15.228572  -0.050999  -0.718742  -0.321177   2.832422  -1.221930   1.253412  -2.808844   8.321345   0.026524  -0.031756  -7.425078   0.148914   0.336622  -0.027626  -0.000187   0.000043  -1.106168  -0.363267   2.020981  11.406745  -0.063363  -0.055017  -6.260671   1.075691   0.811198  -0.860444   0.004831   0.003179
 -2.378181   0.922553   3.975333  -2.638484  -3.905851   0.761473   3.012741   1.110911  -1.788792   0.776305   0.373003  -0.601634   1.119909  -0.237811   0.457301  -0.081660  -1.981076   0.018090   1.729630   1.404603  13.062098   0.293295  18.784954  -0.059537  -0.706711  -0.793346  -3.107064  -0.423596   5.691928   2.500666  -3.121622   4.210473  -6.812984   0.114421 -19.033466  -0.061647  -0.888186  -0.563614   3.023125  -1.514612   1.496146  -3.778234  10.133485   0.031634  -0.037596  -8.980412   0.168348   0.407379  -0.053903  -0.000322   0.000168  -1.206664  -0.441689   2.880008  13.966463  -0.079527  -0.054460  -7.567243   1.294020   0.997887  -1.023241   0.005695   0.003342
 -2.377904   0.921341   3.975783  -3.252930  -4.573701   0.914892   3.498854   1.314472  -2.077002   0.936458   0.487186  -0.655521   1.326112  -0.281573   0.503612  -0.067279  -2.283677   0.471507   1.979439   1.696085  15.519880   0.335110  22.570687  -0.057009  -0.838883  -0.642753  -2.878949  -0.502519   6.672429   2.646045  -3.561011   4.963992  -8.099897   0.119297 -22.611220  -0.071518  -1.048901  -0.871736   3.105514  -1.765303   1.727295  -4.851693  11.863772   0.036398  -0.041000 -10.426518   0.183716   0.471620  -0.079440  -0.000446   0.000244  -1.294009  -0.514101   3.817275  16.356543  -0.092171  -0.048245  -8.788026   1.495299   1.175939  -1.175189   0.006384   0.003215
 -2.377542   0.919277   3.976365  -3.532983  -5.227505   0.902192   3.689039   1.411642  -2.101186   0.925073   0.682627  -0.645641   1.432623  -0.396075   0.511981   0.058333  -2.731790   0.616785   2.567395   2.125805  17.927924   0.368256  26.402227  -0.065617  -0.948043  -0.338059  -2.402575  -0.353358   7.900295   2.873365  -3.994401   5.625941  -9.629563   0.121020 -26.216780  -0.079814  -1.183901  -1.199483   3.239157  -2.412343   2.007602  -5.757342  13.698848   0.041069  -0.044346 -11.320734   0.158109   0.328055  -0.191423  -0.001412   0.000686  -1.330554  -0.574189   5.006056  17.477312  -0.087668  -0.039911  -9.803854   1.822219   1.152655  -1.069348   0.003968   0.002367
